<?xml version="1.0" encoding="utf-8"?>
<!-- Generator: Adobe Illustrator 16.0.0, SVG Export Plug-In . SVG Version: 6.00 Build 0)  -->
<!DOCTYPE svg PUBLIC "-//W3C//DTD SVG 1.1//EN" "http://www.w3.org/Graphics/SVG/1.1/DTD/svg11.dtd">
<svg version="1.1" id="Capa_1" xmlns="http://www.w3.org/2000/svg" xmlns:xlink="http://www.w3.org/1999/xlink" x="0px" y="0px"
	 width="85.04px" height="85.04px" viewBox="0 0 85.04 85.04" enable-background="new 0 0 85.04 85.04" xml:space="preserve">
<path fill-rule="evenodd" clip-rule="evenodd" d="M40.919,8.532C59.575,8.51,74.913,23.691,74.896,42.548
	C74.88,61.374,59.549,76.536,40.854,76.509C22.052,76.483,6.768,61.114,6.908,42.261C7.046,23.657,22.222,8.502,40.919,8.532z
	 M26.396,25.956c-0.006,0.316-0.014,0.571-0.014,0.826c-0.001,10.454-0.001,20.908-0.001,31.362c0,0.151-0.005,0.303,0.002,0.453
	c0.006,0.123,0.029,0.245,0.045,0.378c0.119,0.016,0.202,0.036,0.284,0.036c2.722,0.001,5.443,0.002,8.165-0.002
	c0.099,0,0.198-0.042,0.325-0.071c0-0.309,0-0.586,0-0.865c0-10.389,0-20.778,0-31.168c0-0.193,0.008-0.389-0.004-0.582
	c-0.007-0.121-0.045-0.24-0.07-0.367C32.225,25.956,29.355,25.956,26.396,25.956z M55.519,25.94c-2.822,0-5.605,0-8.388,0.002
	c-0.082,0-0.164,0.025-0.261,0.042c-0.098,0.286-0.06,0.567-0.06,0.842c-0.002,10.433-0.002,20.864-0.002,31.297
	c0,0.151-0.004,0.303,0.003,0.454c0.006,0.123,0.027,0.246,0.043,0.393C46.991,58.983,47.095,59,47.199,59
	c2.678,0.002,5.356,0.002,8.035-0.001c0.102,0,0.203-0.03,0.294-0.044C55.598,58.339,55.596,26.563,55.519,25.94z"/>
<path fill-rule="evenodd" clip-rule="evenodd" fill="#FFFFFF" d="M26.396,25.956c2.959,0,5.829,0,8.732,0
	c0.025,0.127,0.063,0.246,0.07,0.367c0.012,0.193,0.004,0.389,0.004,0.582c0,10.39,0,20.779,0,31.168c0,0.279,0,0.557,0,0.865
	c-0.127,0.029-0.226,0.071-0.325,0.071c-2.722,0.004-5.443,0.003-8.165,0.002c-0.083,0-0.166-0.021-0.284-0.036
	c-0.016-0.133-0.039-0.255-0.045-0.378c-0.008-0.15-0.002-0.302-0.002-0.453c0-10.454,0-20.908,0.001-31.362
	C26.382,26.527,26.39,26.272,26.396,25.956z"/>
<path fill-rule="evenodd" clip-rule="evenodd" fill="#FFFFFF" d="M55.519,25.94c0.077,0.623,0.079,32.399,0.009,33.016
	C55.436,58.969,55.335,59,55.233,59c-2.678,0.003-5.356,0.003-8.035,0.001c-0.104,0-0.208-0.018-0.344-0.031
	c-0.017-0.146-0.037-0.27-0.043-0.393c-0.007-0.151-0.003-0.303-0.003-0.454c0-10.433,0-20.864,0.002-31.297
	c0-0.274-0.038-0.556,0.06-0.842c0.097-0.017,0.179-0.042,0.261-0.042C49.914,25.94,52.697,25.94,55.519,25.94z"/>
</svg>
