<?xml version="1.0" encoding="utf-8"?>
<!-- Generator: Adobe Illustrator 16.0.0, SVG Export Plug-In . SVG Version: 6.00 Build 0)  -->
<!DOCTYPE svg PUBLIC "-//W3C//DTD SVG 1.1//EN" "http://www.w3.org/Graphics/SVG/1.1/DTD/svg11.dtd">
<svg version="1.1" id="Capa_1" xmlns="http://www.w3.org/2000/svg" xmlns:xlink="http://www.w3.org/1999/xlink" x="0px" y="0px"
	 width="85.04px" height="85.04px" viewBox="0 0 85.04 85.04" enable-background="new 0 0 85.04 85.04" xml:space="preserve">
<path fill-rule="evenodd" clip-rule="evenodd" d="M8.514,45.948c0.139-9.299,3.379-17.378,9.977-23.981
	c6.611-6.616,14.699-9.874,24.048-10.007c19.087,0.092,34.068,15.553,33.987,34.166c-0.08,18.348-14.87,33.757-34.038,33.858
	c-9.32-0.159-17.396-3.401-23.989-10.001C11.903,63.382,8.654,55.306,8.514,45.948z M29.758,63.591
	c10.194-5.887,20.318-11.731,30.488-17.604c-0.175-0.123-0.29-0.217-0.417-0.291c-0.746-0.436-1.494-0.865-2.242-1.297
	c-7.477-4.316-14.955-8.634-22.432-12.951c-1.645-0.949-3.289-1.902-4.937-2.846c-0.138-0.078-0.266-0.238-0.464-0.156
	C29.68,28.958,29.673,62.899,29.758,63.591z"/>
<path fill-rule="evenodd" clip-rule="evenodd" fill="#FFFFFF" d="M29.758,63.591c-0.084-0.691-0.078-34.633-0.005-35.145
	c0.199-0.082,0.326,0.078,0.464,0.156c1.648,0.943,3.292,1.896,4.937,2.846c7.478,4.317,14.955,8.635,22.432,12.951
	c0.748,0.432,1.496,0.861,2.242,1.297c0.127,0.074,0.242,0.168,0.417,0.291C50.076,51.859,39.952,57.704,29.758,63.591z"/>
</svg>
