<?xml version="1.0" encoding="utf-8"?>
<!-- Generator: Adobe Illustrator 16.0.0, SVG Export Plug-In . SVG Version: 6.00 Build 0)  -->
<!DOCTYPE svg PUBLIC "-//W3C//DTD SVG 1.1//EN" "http://www.w3.org/Graphics/SVG/1.1/DTD/svg11.dtd">
<svg version="1.1" id="Capa_1" xmlns="http://www.w3.org/2000/svg" xmlns:xlink="http://www.w3.org/1999/xlink" x="0px" y="0px"
	 width="85.04px" height="85.04px" viewBox="0 0 85.04 85.04" enable-background="new 0 0 85.04 85.04" xml:space="preserve">
<g>
	<path fill-rule="evenodd" clip-rule="evenodd" d="M44.839,80.69c-1.545,0-3.09,0-4.635,0c-0.941-0.122-1.881-0.244-2.822-0.367
		c-3.4-0.441-6.674-1.346-9.824-2.693c-4.258-1.822-8.053-4.338-11.404-7.536c-2.467-2.354-4.59-4.982-6.338-7.899
		c-2.734-4.563-4.484-9.48-5.119-14.777c-0.107-0.901-0.229-1.801-0.346-2.701c0-1.504,0-3.008,0-4.512
		c0.035-0.113,0.092-0.226,0.1-0.341c0.291-3.87,1.109-7.618,2.527-11.237c1.912-4.883,4.717-9.183,8.393-12.913
		c2.463-2.497,5.219-4.612,8.27-6.351c4.281-2.441,8.859-3.993,13.742-4.645c0.941-0.125,1.881-0.244,2.822-0.367
		c1.545,0,3.09,0,4.635,0c0.113,0.035,0.225,0.092,0.34,0.1c3.869,0.291,7.615,1.111,11.236,2.525
		c4.24,1.655,8.057,4.002,11.453,7.018c2.729,2.422,5.057,5.191,6.998,8.293c2.92,4.662,4.742,9.707,5.463,15.156
		c0.121,0.92,0.24,1.841,0.361,2.762c0,1.545,0,3.089,0,4.633c-0.035,0.135-0.084,0.266-0.104,0.402
		c-0.291,1.924-0.473,3.871-0.885,5.768c-1.383,6.355-4.322,11.943-8.613,16.814c-2.426,2.754-5.211,5.096-8.332,7.047
		c-4.662,2.914-9.707,4.743-15.158,5.461C46.679,80.45,45.759,80.569,44.839,80.69z M47.29,35.37c0-3.231,0.002-6.463-0.002-9.693
		c0-0.873,0.014-1.749-0.033-2.621c-0.1-1.821-1.41-3.638-3.549-4.236c-1.625-0.453-3.631,0.154-4.828,1.563
		c-0.83,0.979-1.129,2.126-1.129,3.387c0.006,7.722,0.002,15.443,0.004,23.166c0,0.264,0.01,0.529,0.035,0.791
		c0.336,3.453,4.072,5.412,7.076,3.694c1.717-0.981,2.432-2.53,2.428-4.467C47.284,43.091,47.29,39.231,47.29,35.37z M42.515,56.762
		c-2.623,0.008-4.756,2.149-4.75,4.771c0.006,2.619,2.162,4.777,4.764,4.77c2.613-0.01,4.752-2.161,4.75-4.78
		C47.274,58.898,45.128,56.752,42.515,56.762z"/>
	<path fill-rule="evenodd" clip-rule="evenodd" fill="#FFFFFF" d="M47.29,35.37c0,3.861-0.006,7.722,0.002,11.583
		c0.004,1.937-0.711,3.485-2.428,4.467c-3.004,1.718-6.74-0.241-7.076-3.694c-0.025-0.262-0.035-0.527-0.035-0.791
		c-0.002-7.723,0.002-15.444-0.004-23.166c0-1.261,0.299-2.408,1.129-3.387c1.197-1.408,3.203-2.016,4.828-1.563
		c2.139,0.599,3.449,2.415,3.549,4.236c0.047,0.872,0.033,1.748,0.033,2.621C47.292,28.907,47.29,32.138,47.29,35.37z"/>
	<path fill-rule="evenodd" clip-rule="evenodd" fill="#FFFFFF" d="M42.515,56.762c2.613-0.01,4.76,2.136,4.764,4.761
		c0.002,2.619-2.137,4.771-4.75,4.78c-2.602,0.008-4.758-2.15-4.764-4.77C37.759,58.912,39.892,56.77,42.515,56.762z"/>
</g>
</svg>
