<?xml version="1.0" encoding="utf-8"?>
<!-- Generator: Adobe Illustrator 16.0.0, SVG Export Plug-In . SVG Version: 6.00 Build 0)  -->
<!DOCTYPE svg PUBLIC "-//W3C//DTD SVG 1.1//EN" "http://www.w3.org/Graphics/SVG/1.1/DTD/svg11.dtd">
<svg version="1.1" id="Capa_1" xmlns="http://www.w3.org/2000/svg" xmlns:xlink="http://www.w3.org/1999/xlink" x="0px" y="0px"
	 width="85.04px" height="85.04px" viewBox="0 0 85.04 85.04" enable-background="new 0 0 85.04 85.04" xml:space="preserve">
<g>
	<circle fill-rule="evenodd" clip-rule="evenodd" cx="42.931" cy="46.07" r="37.667"/>
	<g>
		<path fill-rule="evenodd" clip-rule="evenodd" fill="#FFFFFF" d="M46.221,43.922c3.73,3.553,7.457,7.108,11.193,10.656
			c1.873,1.779,2.877,3.721,2.641,5.867c-0.412,3.756-4.881,4.66-8.449,1.727c-0.27-0.223-0.533-0.461-0.787-0.703
			c-7.463-7.104-14.922-14.211-22.387-21.313c-1.219-1.158-2.121-2.43-2.494-3.933c-0.535-2.162,0.26-4.174,1.82-4.933
			c2.053-0.999,4.711-0.276,6.539,1.327c0.875,0.768,1.711,1.583,2.557,2.386C39.979,37.975,43.098,40.949,46.221,43.922z"/>
		<path fill-rule="evenodd" clip-rule="evenodd" fill="#FFFFFF" d="M39.742,42.943c-3.379,3.889-6.756,7.779-10.141,11.662
			c-1.699,1.948-2.514,3.977-2.078,6.091c0.764,3.7,5.299,4.179,8.574,0.924c0.25-0.248,0.488-0.509,0.719-0.774
			c6.762-7.775,13.518-15.553,20.281-23.324c1.104-1.27,1.883-2.62,2.111-4.15c0.33-2.203-0.65-4.131-2.273-4.74
			c-2.139-0.801-4.717,0.168-6.387,1.938c-0.799,0.846-1.555,1.737-2.32,2.615C45.398,36.436,42.57,39.689,39.742,42.943z"/>
	</g>
</g>
</svg>
