<?xml version="1.0" encoding="utf-8"?>
<!-- Generator: Adobe Illustrator 16.0.0, SVG Export Plug-In . SVG Version: 6.00 Build 0)  -->
<!DOCTYPE svg PUBLIC "-//W3C//DTD SVG 1.1//EN" "http://www.w3.org/Graphics/SVG/1.1/DTD/svg11.dtd">
<svg version="1.1" id="Capa_1" xmlns="http://www.w3.org/2000/svg" xmlns:xlink="http://www.w3.org/1999/xlink" x="0px" y="0px"
	 width="85.04px" height="85.04px" viewBox="0 0 85.04 85.04" enable-background="new 0 0 85.04 85.04" xml:space="preserve">
<g>
	<circle fill-rule="evenodd" clip-rule="evenodd" fill="#C3383C" cx="42.521" cy="41.48" r="37.667"/>
	<g>
		<path fill-rule="evenodd" clip-rule="evenodd" fill="#FFFFFF" d="M45.811,39.332c3.73,3.552,7.457,7.108,11.193,10.656
			c1.873,1.779,2.877,3.722,2.641,5.868c-0.412,3.755-4.881,4.659-8.449,1.726c-0.27-0.223-0.533-0.46-0.787-0.704
			c-7.463-7.104-14.922-14.21-22.387-21.312c-1.219-1.159-2.121-2.43-2.494-3.933c-0.535-2.162,0.26-4.174,1.82-4.933
			c2.053-0.999,4.711-0.276,6.539,1.327c0.875,0.768,1.711,1.583,2.557,2.386C39.568,33.384,42.688,36.358,45.811,39.332z"/>
		<path fill-rule="evenodd" clip-rule="evenodd" fill="#FFFFFF" d="M39.332,38.354c-3.379,3.888-6.756,7.779-10.141,11.662
			c-1.699,1.948-2.514,3.976-2.078,6.09c0.764,3.7,5.299,4.179,8.574,0.924c0.25-0.248,0.488-0.509,0.719-0.775
			c6.762-7.775,13.518-15.552,20.281-23.324c1.104-1.269,1.883-2.62,2.111-4.15c0.33-2.203-0.65-4.131-2.273-4.74
			c-2.139-0.801-4.717,0.168-6.387,1.937c-0.799,0.846-1.555,1.737-2.32,2.616C44.988,31.845,42.16,35.1,39.332,38.354z"/>
	</g>
</g>
</svg>
