<?xml version="1.0" encoding="utf-8"?>
<!-- Generator: Adobe Illustrator 16.0.0, SVG Export Plug-In . SVG Version: 6.00 Build 0)  -->
<!DOCTYPE svg PUBLIC "-//W3C//DTD SVG 1.1//EN" "http://www.w3.org/Graphics/SVG/1.1/DTD/svg11.dtd">
<svg version="1.1" id="Capa_1" xmlns="http://www.w3.org/2000/svg" xmlns:xlink="http://www.w3.org/1999/xlink" x="0px" y="0px"
	 width="85.04px" height="85.04px" viewBox="0 0 85.04 85.04" enable-background="new 0 0 85.04 85.04" xml:space="preserve">
<path fill-rule="evenodd" clip-rule="evenodd" fill="#053C47" d="M42.537,9.258c18.656-0.021,33.994,15.159,33.978,34.017
	C76.499,62.1,61.167,77.262,42.472,77.236C23.67,77.21,8.386,61.84,8.526,42.988C8.664,24.383,23.84,9.229,42.537,9.258z
	 M28.014,26.682C28.008,26.999,28,27.253,28,27.509C28,37.962,28,48.417,28,58.871c0,0.151-0.005,0.303,0.002,0.453
	c0.006,0.123,0.029,0.246,0.045,0.377c0.119,0.016,0.202,0.037,0.284,0.037c2.722,0.001,5.443,0.002,8.165-0.002
	c0.099,0,0.198-0.042,0.325-0.071c0-0.308,0-0.586,0-0.865c0-10.389,0-20.778,0-31.167c0-0.194,0.008-0.389-0.004-0.583
	c-0.007-0.121-0.045-0.24-0.07-0.367C33.843,26.682,30.973,26.682,28.014,26.682z M57.137,26.667c-2.822,0-5.605,0-8.388,0.002
	c-0.082,0-0.164,0.026-0.261,0.042c-0.098,0.286-0.06,0.567-0.06,0.842c-0.002,10.432-0.002,20.865-0.002,31.297
	c0,0.151-0.004,0.303,0.003,0.454c0.006,0.124,0.027,0.246,0.043,0.393c0.136,0.013,0.24,0.031,0.344,0.031
	c2.678,0.002,5.356,0.002,8.035-0.001c0.102,0,0.203-0.03,0.294-0.044C57.216,59.066,57.214,27.29,57.137,26.667z"/>
<path fill-rule="evenodd" clip-rule="evenodd" fill="#FFFFFF" d="M28.014,26.682c2.959,0,5.829,0,8.732,0
	c0.025,0.127,0.063,0.246,0.07,0.367c0.012,0.194,0.004,0.389,0.004,0.583c0,10.389,0,20.778,0,31.167c0,0.279,0,0.557,0,0.865
	c-0.127,0.029-0.226,0.071-0.325,0.071c-2.722,0.004-5.443,0.003-8.165,0.002c-0.083,0-0.166-0.021-0.284-0.037
	c-0.016-0.132-0.039-0.254-0.045-0.377C27.994,59.173,28,59.021,28,58.871C28,48.417,28,37.962,28,27.509
	C28,27.253,28.008,26.999,28.014,26.682z"/>
<path fill-rule="evenodd" clip-rule="evenodd" fill="#FFFFFF" d="M57.137,26.667c0.077,0.623,0.079,32.399,0.009,33.015
	c-0.092,0.014-0.193,0.044-0.294,0.044c-2.678,0.003-5.356,0.003-8.035,0.001c-0.104,0-0.208-0.018-0.344-0.031
	c-0.017-0.147-0.037-0.27-0.043-0.393c-0.007-0.151-0.003-0.302-0.003-0.454c0-10.432,0-20.865,0.002-31.297
	c0-0.275-0.038-0.556,0.06-0.842c0.097-0.016,0.179-0.042,0.261-0.042C51.532,26.666,54.315,26.667,57.137,26.667z"/>
</svg>
