<?xml version="1.0" encoding="utf-8"?>
<!-- Generator: Adobe Illustrator 16.0.0, SVG Export Plug-In . SVG Version: 6.00 Build 0)  -->
<!DOCTYPE svg PUBLIC "-//W3C//DTD SVG 1.1//EN" "http://www.w3.org/Graphics/SVG/1.1/DTD/svg11.dtd">
<svg version="1.1" id="Capa_1" xmlns="http://www.w3.org/2000/svg" xmlns:xlink="http://www.w3.org/1999/xlink" x="0px" y="0px"
	 width="85.04px" height="85.04px" viewBox="0 0 85.04 85.04" enable-background="new 0 0 85.04 85.04" xml:space="preserve">
<path fill-rule="evenodd" clip-rule="evenodd" fill="#053C47" d="M9.083,43.624c0.139-9.299,3.379-17.377,9.977-23.981
	c6.611-6.616,14.699-9.875,24.048-10.007c19.087,0.092,34.068,15.553,33.987,34.167c-0.08,18.348-14.87,33.756-34.038,33.858
	c-9.32-0.159-17.396-3.402-23.989-10.001C12.472,61.057,9.223,52.981,9.083,43.624z M30.327,61.266
	c10.194-5.886,20.318-11.731,30.488-17.603c-0.175-0.123-0.29-0.218-0.417-0.292c-0.746-0.435-1.494-0.865-2.242-1.296
	c-7.477-4.317-14.955-8.634-22.432-12.951c-1.645-0.949-3.289-1.902-4.937-2.845c-0.138-0.079-0.266-0.239-0.464-0.156
	C30.249,26.633,30.242,60.575,30.327,61.266z"/>
<path fill-rule="evenodd" clip-rule="evenodd" fill="#FFFFFF" d="M30.327,61.266c-0.084-0.691-0.078-34.633-0.005-35.144
	c0.199-0.083,0.326,0.077,0.464,0.156c1.648,0.943,3.292,1.896,4.937,2.845c7.478,4.317,14.955,8.634,22.432,12.951
	c0.748,0.432,1.496,0.862,2.242,1.296c0.127,0.074,0.242,0.169,0.417,0.292C50.645,49.535,40.521,55.38,30.327,61.266z"/>
</svg>
