<?xml version="1.0" encoding="utf-8"?>
<!-- Generator: Adobe Illustrator 16.0.0, SVG Export Plug-In . SVG Version: 6.00 Build 0)  -->
<!DOCTYPE svg PUBLIC "-//W3C//DTD SVG 1.1//EN" "http://www.w3.org/Graphics/SVG/1.1/DTD/svg11.dtd">
<svg version="1.1" id="Capa_1" xmlns="http://www.w3.org/2000/svg" xmlns:xlink="http://www.w3.org/1999/xlink" x="0px" y="0px"
	 width="85.04px" height="85.04px" viewBox="0 0 85.04 85.04" enable-background="new 0 0 85.04 85.04" xml:space="preserve">
<g>
	<path fill-rule="evenodd" clip-rule="evenodd" fill="#D4C23B" d="M78.767,70.089c-1.069-1.879-2.149-3.751-3.241-5.618
		c-2.663-4.559-5.337-9.112-8.005-13.667c-1.29-2.201-2.588-4.396-3.871-6.601c-2.444-4.199-4.883-8.401-7.32-12.605
		c-2.324-4.007-4.64-8.019-6.965-12.025c-1.542-2.655-3.098-5.303-4.636-7.96c-0.364-0.631-0.81-1.317-1.554-1.246
		c-0.505,0.048-1.127,0.513-1.408,0.968c-1.144,1.844-2.156,3.769-3.251,5.644c-2.402,4.112-4.835,8.206-7.238,12.318
		c-2.086,3.572-4.136,7.165-6.224,10.736c-2.394,4.092-4.822,8.163-7.214,12.256c-3.402,5.826-6.783,11.664-10.169,17.499
		c-0.312,0.538-0.704,1.048-0.316,1.75c0.408,0.74,1.044,0.851,1.785,0.851c11.332-0.004,22.664-0.004,33.995-0.004
		c0,0.006,0,0.011,0,0.017c10.978,0,21.954,0,32.934-0.001c0.501,0,1.004,0.009,1.504-0.026
		C78.863,72.284,79.416,71.234,78.767,70.089z"/>
	<g>
		<path fill-rule="evenodd" clip-rule="evenodd" fill="#FFFFFF" d="M45.014,53.224c-1.308,0-2.472,0-3.78,0
			c-0.235-7.884-0.472-15.753-0.709-23.684c1.755,0,3.407,0,5.188,0C45.48,37.437,45.248,45.286,45.014,53.224z"/>
		<path fill-rule="evenodd" clip-rule="evenodd" fill="#FFFFFF" d="M43.132,63.148c-1.822,0.002-3.115-1.323-3.118-3.199
			c-0.005-1.924,1.296-3.268,3.156-3.262c1.808,0.006,3.058,1.341,3.049,3.257C46.213,61.869,44.982,63.146,43.132,63.148z"/>
	</g>
</g>
</svg>
