<?xml version="1.0" encoding="utf-8"?>
<!-- Generator: Adobe Illustrator 16.0.0, SVG Export Plug-In . SVG Version: 6.00 Build 0)  -->
<!DOCTYPE svg PUBLIC "-//W3C//DTD SVG 1.1//EN" "http://www.w3.org/Graphics/SVG/1.1/DTD/svg11.dtd">
<svg version="1.1" id="Capa_1" xmlns="http://www.w3.org/2000/svg" xmlns:xlink="http://www.w3.org/1999/xlink" x="0px" y="0px"
	 width="158.336px" height="158.336px" viewBox="0 0 158.336 158.336" enable-background="new 0 0 158.336 158.336"
	 xml:space="preserve">
<g>
	<path fill-rule="evenodd" clip-rule="evenodd" fill="#100F0E" d="M129.086,125.791c-0.238,0.419-0.21,0.908-0.358,1.352
		c-1.579,4.72-4.492,8.278-9.104,10.296c-2.341,1.024-4.641,0.601-6.829-0.539c-2.898-1.511-5.082-3.7-6.237-6.815
		c-0.687-1.852-0.563-3.67,0.293-5.434c1.861-3.836,4.727-6.675,8.577-8.5c2.157-1.022,4.334-0.781,6.457,0.107
		c3.053,1.277,5.491,3.231,6.768,6.405c0.166,0.414,0.113,0.899,0.432,1.256C129.086,124.543,129.086,125.167,129.086,125.791z
		 M113.154,123.048c-0.331,0.398-0.699,0.772-0.984,1.201c-0.722,1.082-1.345,2.215-1.093,3.592
		c0.374,2.043,1.622,3.442,3.357,4.468c2.163,1.444,4.612,1.11,6.749-1.034c1.296-1.151,2.248-2.535,2.752-4.199
		c0.43-1.42,0.195-2.733-0.702-3.936c-0.711-0.953-1.617-1.645-2.665-2.179c-1.918-0.979-3.744-0.874-5.479,0.431
		C114.346,121.83,113.7,122.38,113.154,123.048z"/>
	<path fill-rule="evenodd" clip-rule="evenodd" fill="#100C0D" d="M61.322,139.768c-0.132-0.242-0.385-0.201-0.596-0.244
		c-4.041-0.809-8.114-4.87-8.925-8.91c-0.235-1.169-0.155-2.331,0.291-3.428c1.758-4.317,4.843-7.379,9.027-9.355
		c1.674-0.791,3.425-0.759,5.169-0.236c2.746,0.822,5.036,2.335,6.755,4.644c1.57,2.109,2,4.45,1.138,6.947
		c-1.555,4.506-4.424,7.882-8.779,9.916c-0.621,0.29-1.305,0.448-1.959,0.667C62.737,139.768,62.03,139.768,61.322,139.768z
		 M63.532,122.047c-0.577-0.096-1.189,0.126-1.755,0.412c-2.213,1.118-3.899,2.751-4.875,5.076c-0.416,0.991-0.385,1.95-0.042,2.946
		c0.5,1.446,1.473,2.516,2.713,3.323c2.355,1.533,3.96,1.569,6.278-0.027c1.662-1.145,2.833-2.706,3.54-4.578
		c0.31-0.822,0.47-1.735,0.24-2.622C68.961,123.99,65.878,122.013,63.532,122.047z"/>
	<path fill-rule="evenodd" clip-rule="evenodd" fill="#0E0D0E" d="M29.25,117.555c0.19-0.101,0.177-0.309,0.25-0.471
		c0.253-0.562,0.636-0.934,1.28-1.046c3.826-0.67,7.667-1.2,11.541-1.51c4.129-0.331,8.264-0.369,12.401-0.333
		c0.352,0.003,0.705,0.035,1.054,0.082c0.718,0.097,1.352,0.363,1.557,1.131c0.222,0.83-0.126,1.499-0.736,2.052
		c-0.492,0.446-1.121,0.51-1.736,0.597c-2.596,0.37-5.214,0.477-7.828,0.593c-0.694,0.031-1.044,0.309-1.181,0.932
		c-0.338,1.538-0.676,3.077-0.99,4.62c-0.855,4.208-1.692,8.419-2.55,12.626c-0.312,1.525-1.268,2.417-2.785,2.743
		c-0.178,0.038-0.43-0.04-0.544,0.199c-0.333,0-0.666,0-0.998,0c-0.099-0.25-0.342-0.19-0.528-0.237
		c-1.587-0.401-2.174-1.378-1.77-2.953c0.134-0.521,0.25-1.048,0.388-1.568c1.311-4.939,2.784-9.833,4.181-14.749
		c0.236-0.83,0.105-1.033-0.748-1.028c-1.079,0.006-2.154,0.11-3.224,0.253c-1.684,0.226-3.366,0.467-5.052,0.678
		c-0.992,0.124-1.454-0.186-1.811-1.113c-0.048-0.126-0.001-0.304-0.173-0.375C29.25,118.304,29.25,117.929,29.25,117.555z"/>
	<path fill-rule="evenodd" clip-rule="evenodd" fill="#F1D133" d="M90.64,15.241c0.57,0.447,1.169,0.831,1.63,1.438
		c0.477,0.628,0.681,1.317,0.88,2.035c0.006,0.919,0.012,1.838,0.018,2.757c-0.168,1.551-0.792,2.891-2.035,3.84
		c-0.71,0.542-1.618,0.778-2.507,0.838c-1.742,0.117-3.41-0.227-5.046-0.867c-0.823-0.322-1.451-0.881-2.175-1.319
		c-0.15-0.345-0.404-0.589-0.741-0.751c-0.158-0.34-0.466-0.604-0.502-1.005c-0.016-0.224,0.028-0.447-0.056-0.674
		c-0.333-0.902-0.338-1.864-0.149-2.76c0.102-0.482,0.09-1.052,0.431-1.497c0.085-0.112,0.057-0.327-0.118-0.438
		c0.473-1.38,1.359-2.407,2.657-3.068c0.152-0.077,0.299-0.122,0.36-0.294c0.957,0,1.914,0,2.871,0
		c0.316,0.386,0.801,0.231,1.199,0.362C88.494,14.209,89.596,14.655,90.64,15.241z"/>
	<path fill-rule="evenodd" clip-rule="evenodd" fill="#080709" d="M86.781,55.859c-0.067-3.769-0.424-7.764-1.621-11.656
		c-0.832-2.705-2.453-4.559-5.249-5.303c-3.025-0.806-5.679,0.618-6.58,3.618c-1.607,5.354-1.536,10.72-0.059,16.093
		c0.744,2.706,2.007,5.218,2.87,7.877c1.479,4.559,2.615,9.181,2.526,14.021c-0.023,1.251-0.172,2.49-0.622,3.667
		c-0.59,1.542-1.488,2.278-3.236,2.238c-5.354-0.122-8.783-3.053-10.975-7.597c-1.877-3.892-2.51-8.1-2.413-12.414
		c0.103-4.54,1.14-8.917,2.31-13.272c0.537-2,1.298-3.945,1.52-6.021c0.185-1.732,0.142-3.441-0.665-5.051
		c-1.021-2.037-3.054-2.707-5.087-1.679c-1.338,0.676-2.222,1.771-2.914,3.06c-0.646,1.206-1.258,2.433-2.055,3.553
		c-0.882,1.24-1.979,2.236-3.352,2.911c-1.538,0.755-3.069,0.431-4.227-0.844c-1.447-1.595-2.236-4.652-0.495-7.074
		c2.391-3.326,5.55-5.646,9.298-7.168c5.376-2.184,10.974-3.601,16.673-4.655c6.5-1.202,13.047-1.816,19.657-1.578
		c5.674,0.205,11.236,1.031,16.492,3.343c2.287,1.006,4.306,2.351,5.634,4.531c1.022,1.677,1.419,3.457,0.534,5.331
		c-0.904,1.913-2.671,2.732-4.734,2.271c-2.38-0.531-4.187-1.935-5.769-3.703c-0.97-1.084-1.915-2.194-3.079-3.084
		c-1.181-0.903-2.475-1.519-3.995-1.535c-2.152-0.023-3.883,1.494-4.396,3.846c-0.517,2.37-0.056,4.661,0.567,6.939
		c0.691,2.53,1.897,4.86,2.825,7.297c1.571,4.123,2.647,8.373,3.363,12.723c0.639,3.886,0.993,7.793,0.848,11.731
		c-0.135,3.671-0.834,7.215-2.747,10.418c-1.34,2.243-3.122,3.977-5.731,4.687c-3.546,0.964-6.009-0.316-7.252-3.782
		c-0.89-2.484-1.042-5.066-1.028-7.673c0.028-5.054,0.874-10.001,1.958-14.916C86.37,63.425,86.746,59.798,86.781,55.859z"/>
	<path fill-rule="evenodd" clip-rule="evenodd" fill="#0E0D0E" d="M105.932,112.985c0.751,0.019,1.499-0.022,2.246,0.068
		c1.213,0.146,1.938,0.783,2,1.76c0.071,1.122-0.762,2.251-1.834,2.504c-1.119,0.264-2.257,0.332-3.4,0.361
		c-0.831,0.021-1.663-0.02-2.492,0.087c-0.854,0.111-1.403,0.556-1.571,1.415c-0.551,2.83-1.062,5.667-1.616,8.497
		c-0.585,2.99-1.202,5.97-1.958,8.926c-0.512,1.999-3.766,2.445-5.042,1.237c-0.682-0.645-0.826-1.462-0.716-2.346
		c0.247-1.979,0.631-3.935,1.156-5.856c0.835-3.058,1.751-6.093,2.57-9.155c0.404-1.511-0.132-2.176-1.688-2.21
		c-1.246-0.027-2.488,0.083-3.727,0.253c-1.33,0.182-2.048,0.928-2.34,2.211c-0.439,1.929-0.596,3.896-0.844,5.85
		c-0.403,3.171-0.744,6.352-1.295,9.502c-0.392,2.235-2.616,3.726-4.859,3.311c-1.168-0.216-1.799-1.104-1.565-2.271
		c1.084-5.408,2.174-10.815,3.278-16.219c0.278-1.363,0.204-1.502-1.203-1.34c-1.152,0.133-2.292,0.367-3.438,0.553
		c-0.579,0.094-1.166,0.098-1.742,0.037c-0.834-0.089-1.606-0.349-1.901-1.256c-0.299-0.922,0.089-2.057,0.877-2.684
		c0.848-0.675,1.877-0.855,2.897-1.037c2.827-0.504,5.692-0.664,8.549-0.876c3.896-0.291,7.793-0.569,11.69-0.833
		C100.621,113.295,103.277,113.147,105.932,112.985z"/>
	<path fill-rule="evenodd" clip-rule="evenodd" fill="#C3383C" d="M63.164,20.46c0.147-0.988,0.922-1.557,1.535-2.209
		c1.243-1.321,2.804-2.168,4.488-2.798c1.076-0.248,2.153-0.392,3.239-0.057c0.086,0.023,0.172,0.046,0.258,0.07
		c0.165,0.079,0.33,0.158,0.495,0.237c1.799,0.979,3.217,2.314,3.991,4.255l0.004,0.012c0.162,0.789,0.175,1.579,0.016,2.369
		c-1.31,3.026-3.608,4.896-6.78,5.667c-2.039,0.496-3.687-0.397-5.128-1.729c-0.986-0.911-1.688-2.03-2.108-3.315
		C63.007,22.129,62.944,21.295,63.164,20.46z"/>
	<path fill-rule="evenodd" clip-rule="evenodd" fill="#D4C23B" d="M80.269,16.838c0.175,0.111,0.204,0.326,0.118,0.438
		c-0.341,0.445-0.33,1.015-0.431,1.497c-0.188,0.896-0.184,1.858,0.149,2.76c0.084,0.227,0.04,0.45,0.056,0.674
		c-0.354-0.15-0.347-0.557-0.38-0.794c-0.149-1.059-0.259-2.133,0.058-3.194C79.977,17.756,79.931,17.238,80.269,16.838z"/>
	<path fill-rule="evenodd" clip-rule="evenodd" fill="#F0DED9" d="M73.678,15.599c0.009-0.017,0.018-0.033,0.026-0.05
		c-0.009,0.016-0.019,0.031-0.029,0.047L73.678,15.599z"/>
	<path fill-rule="evenodd" clip-rule="evenodd" fill="#F0D030" d="M115.088,121.392c1.735-1.304,3.561-1.409,5.479-0.431
		c1.048,0.535,1.954,1.226,2.665,2.179c0.896,1.203,1.132,2.516,0.702,3.936c-0.504,1.664-1.456,3.047-2.752,4.199
		c-0.525-0.005-0.933,0.251-1.294,0.597c-0.945,0.904-2.462,1.32-3.877,0.759c-0.464-0.183-1.012-0.417-1.577-0.322
		c-1.735-1.026-2.983-2.425-3.357-4.468c-0.251-1.377,0.372-2.51,1.093-3.592c0.286-0.428,0.654-0.802,0.984-1.201
		c0.338-0.002,0.672,0.074,0.778-0.44c0.057-0.272,0.382-0.472,0.683-0.554C114.97,121.957,115.141,121.763,115.088,121.392z"/>
	<path fill-rule="evenodd" clip-rule="evenodd" fill="#D4C23B" d="M114.433,132.309c0.565-0.096,1.113,0.139,1.577,0.322
		c1.415,0.561,2.932,0.145,3.877-0.759c0.361-0.345,0.769-0.602,1.294-0.597C119.045,133.418,116.596,133.753,114.433,132.309z"/>
	<path fill-rule="evenodd" clip-rule="evenodd" fill="#D4C23B" d="M115.088,121.392c0.052,0.371-0.118,0.565-0.474,0.662
		c-0.3,0.082-0.626,0.282-0.683,0.554c-0.106,0.514-0.44,0.438-0.778,0.44C113.7,122.38,114.346,121.83,115.088,121.392z"/>
	<path fill-rule="evenodd" clip-rule="evenodd" fill="#C2373B" d="M63.532,122.047c2.347-0.034,5.43,1.943,6.099,4.529
		c0.229,0.887,0.07,1.799-0.24,2.622c-0.707,1.873-1.877,3.434-3.54,4.578c-2.318,1.596-3.923,1.561-6.278,0.027
		c-1.24-0.807-2.213-1.877-2.713-3.323c-0.343-0.996-0.374-1.955,0.042-2.946c0.976-2.325,2.662-3.958,4.875-5.076
		C62.342,122.173,62.955,121.951,63.532,122.047z"/>
	<path fill-rule="evenodd" clip-rule="evenodd" fill="#FFFFFF" d="M73.212,15.663c0.02-0.036,0.051-0.057,0.093-0.062
		C73.275,15.622,73.244,15.642,73.212,15.663z"/>
</g>
</svg>
